<?xml version="1.0" encoding="iso-8859-1"?>
<!-- Generator: Adobe Illustrator 19.0.0, SVG Export Plug-In . SVG Version: 6.00 Build 0)  -->
<svg version="1.1" id="Capa_1" xmlns="http://www.w3.org/2000/svg" xmlns:xlink="http://www.w3.org/1999/xlink" x="0px" y="0px"
	 viewBox="0 0 464.98 464.98" height="70px" width="70px" style="enable-background:new 0 0 464.98 464.98;" xml:space="preserve">
<g>
	<path style="fill:#00EFD1;" d="M287.869,23.771H182.335c-6.792,0-9.926,7.314-9.926,14.106v17.241h125.388V37.878
		C297.796,31.086,294.661,23.771,287.869,23.771z"/>
	<path style="fill:#00EFD1;" d="M293.616,70.269L177.11,69.224c-2.09,0-4.702,0.522-4.702-0.522v89.861
		c0,6.792,3.135,11.494,9.926,11.494h105.535c6.792,0,9.927-4.702,9.927-11.494V68.702
		C297.796,69.747,295.184,70.269,293.616,70.269z"/>
</g>
<g>
	<rect x="204.278" y="119.38" style="fill:#00ACEA;" width="62.171" height="50.155"/>
	<path style="fill:#00ACEA;" d="M299.886,49.894H161.959v18.808c0.522,3.135,1.567,6.269,4.18,8.359l3.657,2.09
		c1.567,1.045,3.657,1.567,5.747,1.567c6.792,0,12.016-5.224,12.539-12.016v2.612c0,4.18,1.567,8.359,4.702,10.971
		c2.612,3.135,6.792,4.702,10.971,4.702c8.359,0.522,15.151-6.269,15.673-14.629c0-0.522,0-0.522,0-1.045
		c0,4.18,1.567,8.359,4.702,10.971c2.612,3.135,6.792,4.702,10.971,4.702c8.359,0.522,15.151-6.269,15.673-14.629
		c0-0.522,0-0.522,0-1.045c0,4.18,1.567,7.837,4.702,10.971c2.612,3.135,6.792,4.702,10.971,4.702
		c8.359,0.522,15.151-6.269,15.673-14.629c0-0.522,0-0.522,0-1.045l0,0c0.522,2.612,1.567,4.702,3.657,6.269
		c2.09,2.09,5.224,3.657,8.359,3.657c2.612,0,4.702-0.522,6.792-1.567c4.18-2.09,6.792-5.747,7.314-10.449V49.894H299.886z"/>
	<path style="fill:#00ACEA;" d="M67.918,271.935c-5.747,0-10.449-4.702-10.449-10.449c-0.522-54.857,24.555-106.58,67.396-140.539
		c4.702-3.135,11.494-2.09,14.629,3.135c2.612,4.18,2.09,9.926-1.567,13.061c-37.616,30.302-59.559,75.755-59.559,124.343
		C78.367,267.233,73.665,271.935,67.918,271.935z"/>
	<path style="fill:#00ACEA;" d="M237.714,441.208c-19.331,0-38.661-3.135-56.947-8.882c-5.224-2.09-7.837-7.837-6.269-13.061
		s6.792-8.359,12.016-7.314c0.522,0,0.522,0,1.045,0.522c32.914,10.971,68.441,10.449,101.355-0.522
		c5.224-1.567,10.971,1.567,13.061,6.792c1.567,5.224-1.567,11.494-6.792,13.061C276.898,438.073,257.045,441.208,237.714,441.208z"
		/>
	<path style="fill:#00ACEA;" d="M407.51,271.935c-5.747,0-10.449-4.702-10.449-10.449c0-51.722-25.078-100.31-67.396-130.09
		c-4.702-3.135-5.747-9.926-2.612-14.629c3.135-4.702,9.926-5.747,14.629-2.612c47.543,33.959,76.278,88.816,76.278,147.331
		C417.959,267.233,413.257,271.935,407.51,271.935z"/>
</g>
<g>
	<path style="fill:#00EFD1;" d="M125.91,284.996H20.376c-6.792,0-9.926,7.314-9.926,14.106v17.241h125.388v-17.241
		C135.837,292.31,132.702,284.996,125.91,284.996z"/>
	<path style="fill:#00EFD1;" d="M131.657,331.494l-116.506-1.045c-2.09,0-4.702,0.522-4.702-0.522v89.861
		c0,6.792,3.135,11.494,9.926,11.494H125.91c6.792,0,9.926-4.702,9.926-11.494v-89.861
		C135.837,330.971,133.224,331.494,131.657,331.494z"/>
</g>
<path style="fill:#00ACEA;" d="M137.926,311.118H0v18.808c0.522,3.135,1.567,6.269,4.18,8.359l3.657,2.09
	c1.567,1.045,3.657,1.567,5.747,1.567c6.792,0,12.016-5.224,12.539-12.016v2.612c0,4.18,1.567,8.359,4.702,10.971
	c2.612,3.135,6.792,4.702,10.971,4.702c8.359,0.522,15.151-6.269,15.673-14.629c0-0.522,0-0.522,0-1.045
	c0,4.18,1.567,8.359,4.702,10.971c2.612,3.135,6.792,4.702,10.971,4.702c8.359,0.522,15.151-6.269,15.673-14.629
	c0-0.522,0-0.522,0-1.045c0,4.18,1.567,7.837,4.702,10.971c2.612,3.135,6.792,4.702,10.971,4.702
	c8.359,0.522,15.151-6.269,15.673-14.629c0-0.522,0-0.522,0-1.045l0,0c0.522,2.612,1.567,4.702,3.657,6.269
	c2.09,2.09,5.224,3.657,8.359,3.657c2.612,0,4.702-0.522,6.792-1.567c4.18-2.09,6.792-5.747,7.314-10.449v-19.331H137.926z"/>
<g>
	<path style="fill:#00EFD1;" d="M131.135,284.996H25.6c-6.792,0-9.926,7.314-9.926,14.106v17.241h125.388v-17.241
		C141.061,292.31,137.926,284.996,131.135,284.996z"/>
	<path style="fill:#00EFD1;" d="M136.882,331.494l-116.506-1.045c-2.09,0-4.702,0.522-4.702-0.522v89.861
		c0,6.792,3.135,11.494,9.926,11.494h105.535c6.792,0,9.926-4.702,9.926-11.494v-89.861
		C141.061,330.971,138.449,331.494,136.882,331.494z"/>
</g>
<path style="fill:#00ACEA;" d="M143.151,311.118H5.224v18.808c0.522,3.135,1.567,6.269,4.18,8.359l3.657,2.09
	c1.567,1.045,3.657,1.567,5.747,1.567c6.792,0,12.016-5.224,12.539-12.016v2.612c0,4.18,1.567,8.359,4.702,10.971
	c2.612,3.135,6.792,4.702,10.971,4.702c8.359,0.522,15.151-6.269,15.673-14.629c0-0.522,0-0.522,0-1.045
	c0,4.18,1.567,8.359,4.702,10.971c2.612,3.135,6.792,4.702,10.971,4.702c8.359,0.522,15.151-6.269,15.673-14.629
	c0-0.522,0-0.522,0-1.045c0,4.18,1.567,7.837,4.702,10.971c2.612,3.135,6.792,4.702,10.971,4.702
	c8.359,0.522,15.151-6.269,15.673-14.629c0-0.522,0-0.522,0-1.045l0,0c0.522,2.612,1.567,4.702,3.657,6.269
	c2.09,2.09,5.224,3.657,8.359,3.657c2.612,0,4.702-0.522,6.792-1.567c4.18-2.09,6.792-5.747,7.314-10.449v-19.331H143.151z"/>
<g>
	<path style="fill:#00EFD1;" d="M444.604,284.996H339.069c-6.792,0-9.926,7.314-9.926,14.106v17.241h125.388v-17.241
		C454.531,292.31,451.396,284.996,444.604,284.996z"/>
	<path style="fill:#00EFD1;" d="M450.351,331.494l-116.506-1.045c-2.09,0-4.702,0.522-4.702-0.522v89.861
		c0,6.792,3.135,11.494,9.926,11.494h105.535c6.792,0,9.926-4.702,9.926-11.494v-89.861
		C454.531,330.971,451.918,331.494,450.351,331.494z"/>
</g>
<g>
	<rect x="363.625" y="381.649" style="fill:#00ACEA;" width="62.171" height="50.155"/>
	<path style="fill:#00ACEA;" d="M456.62,311.118H318.694v18.808c0.522,3.135,1.567,6.269,4.18,8.359l3.657,2.09
		c1.567,1.045,3.657,1.567,5.747,1.567c6.792,0,12.016-5.224,12.539-12.016v2.612c0.522,8.359,7.314,15.151,15.673,15.673
		c8.359,0.522,15.151-6.269,15.673-14.629c0-0.522,0-0.522,0-1.045c0.522,8.359,7.314,15.151,15.673,15.673
		c8.359,0.522,15.151-6.269,15.673-14.629c0-0.522,0-0.522,0-1.045c0,4.18,1.567,7.837,4.702,10.971
		c2.612,3.135,6.792,4.702,10.971,4.702c8.359,0.522,15.151-6.269,15.673-14.629c0-0.522,0-0.522,0-1.045l0,0
		c0.522,2.612,1.567,4.702,3.657,6.269c2.09,2.09,5.224,3.657,8.359,3.657c2.612,0,4.702-0.522,6.792-1.567
		c4.18-2.09,6.792-5.747,7.314-10.449v-19.331H456.62z"/>
	<polyline style="fill:#00ACEA;" points="44.931,431.282 44.931,381.126 107.102,381.126 107.102,431.282 	"/>
</g>
<g>
</g>
<g>
</g>
<g>
</g>
<g>
</g>
<g>
</g>
<g>
</g>
<g>
</g>
<g>
</g>
<g>
</g>
<g>
</g>
<g>
</g>
<g>
</g>
<g>
</g>
<g>
</g>
<g>
</g>
</svg>
