<svg height="65px" viewBox="-42 0 477 477.656" width="65px" xmlns="http://www.w3.org/2000/svg"><path d="m160.328125 245.65625h128v80h-128zm0 0" fill="#4398d1"/><path d="m296.328125 109.65625h-144v-60.167969c0-20.390625 6.191406-31.960937 16.503906-38.832031 4.886719-3.261719 10.628907-5 16.503907-5h5.984374c5.875 0 11.617188 1.738281 16.503907 5 9.996093 6.65625 23.011719 6.65625 33.007812 0 4.886719-3.261719 10.628907-5 16.503907-5h5.984374c5.875 0 11.617188 1.738281 16.503907 5 10.3125 6.871094 16.503906 18.441406 16.503906 38.832031zm0 0" fill="#995023"/><path d="m279.824219 10.65625c-4.886719-3.261719-10.628907-5-16.503907-5h-5.984374c-4.507813.007812-8.957032 1.042969-13.007813 3.023438 1.210937.578124 2.378906 1.238281 3.496094 1.976562 10.3125 6.871094 16.503906 18.441406 16.503906 38.832031v60.167969h32v-60.167969c0-20.390625-6.191406-31.960937-16.503906-38.832031zm0 0" fill="#8f4b21"/><path d="m152.328125 157.65625h-16c-17.671875 0-32-14.328125-32-32s14.328125-32 32-32h176c17.671875 0 32 14.328125 32 32s-14.328125 32-32 32h-16" fill="#7a3e1a"/><path d="m152.328125 69.65625h144v24h-144zm0 0" fill="#e3e3e1"/><path d="m264.328125 69.65625h32v24h-32zm0 0" fill="#dbdbd9"/><path d="m152.328125 109.65625v64c0 39.765625 32.234375 72 72 72s72-32.234375 72-72v-64zm0 0" fill="#fec9a3"/><path d="m152.328125 109.65625h144v16h-144zm0 0" fill="#fec093"/><path d="m264.328125 109.65625v64c-.023437 33.582031-23.257813 62.6875-56 70.152344 21.359375 4.941406 43.808594-.148438 60.949219-13.8125 17.144531-13.667969 27.105468-34.414063 27.050781-56.339844v-64zm0 0" fill="#fec093"/><path d="m188.328125 141.65625c-6.628906 0-12-5.371094-12-12s5.371094-12 12-12 12 5.371094 12 12-5.371094 12-12 12zm0 0" fill="#7a3e1a"/><path d="m260.328125 141.65625c-6.628906 0-12-5.371094-12-12s5.371094-12 12-12 12 5.371094 12 12-5.371094 12-12 12zm0 0" fill="#7a3e1a"/><path d="m72.328125 405.65625v64c30.929687 0 56-25.074219 56-56v-8zm0 0" fill="#feb784"/><path d="m72.328125 405.65625h56v16h-56zm0 0" fill="#f4a876"/><g fill="#d13e37"><path d="m320.328125 477.65625v-72h56v-104c0-30.929688-25.070313-56-56-56h-192c-30.929687 0-56 25.070312-56 56v104h56v72"/><path d="m128.328125 277.65625h32v32h-32zm0 0"/><path d="m192.328125 277.65625h32v32h-32zm0 0"/><path d="m320.328125 277.65625h32v32h-32zm0 0"/><path d="m256.328125 277.65625h32v32h-32zm0 0"/><path d="m128.328125 341.65625h32v32h-32zm0 0"/><path d="m192.328125 341.65625h32v32h-32zm0 0"/><path d="m320.328125 341.65625h32v32h-32zm0 0"/><path d="m256.328125 341.65625h32v32h-32zm0 0"/><path d="m96.328125 277.65625h-18.535156c-3.589844 7.492188-5.457031 15.691406-5.464844 24v8h24zm0 0"/></g><path d="m192.328125 245.65625h32v32h-32zm0 0" fill="#dd4a43"/><path d="m128.328125 245.65625h32v32h-32zm0 0" fill="#dd4a43"/><path d="m256.328125 245.65625h32v32h-32zm0 0" fill="#dd4a43"/><path d="m96.328125 255.734375c-7.976563 5.574219-14.363281 13.128906-18.535156 21.921875h18.535156zm0 0" fill="#dd4a43"/><path d="m352.328125 277.65625v-21.921875c-9.378906-6.566406-20.550781-10.085937-32-10.078125v32zm0 0" fill="#dd4a43"/><path d="m72.328125 309.65625h24v32h-24zm0 0" fill="#dd4a43"/><path d="m256.328125 309.65625h32v32h-32zm0 0" fill="#dd4a43"/><path d="m192.328125 309.65625h32v32h-32zm0 0" fill="#dd4a43"/><path d="m128.328125 309.65625h32v32h-32zm0 0" fill="#dd4a43"/><path d="m224.328125 309.65625h32v32h-32zm0 0" fill="#c43a34"/><path d="m224.328125 245.65625h32v32h-32zm0 0" fill="#c43a34"/><path d="m224.328125 341.65625h32v32h-32zm0 0" fill="#b53630"/><path d="m224.328125 277.65625h32v32h-32zm0 0" fill="#b53630"/><path d="m288.328125 309.65625h32v32h-32zm0 0" fill="#c43a34"/><path d="m288.328125 245.65625h32v32h-32zm0 0" fill="#c43a34"/><path d="m288.328125 341.65625h32v32h-32zm0 0" fill="#b53630"/><path d="m288.328125 277.65625h32v32h-32zm0 0" fill="#b53630"/><path d="m352.328125 309.65625h24v32h-24zm0 0" fill="#c43a34"/><path d="m352.328125 255.734375v21.921875h18.535156c-4.171875-8.792969-10.558593-16.347656-18.535156-21.921875zm0 0" fill="#c43a34"/><path d="m352.328125 341.65625h24v32h-24zm0 0" fill="#b53630"/><path d="m352.328125 309.65625h24v-8c-.007813-8.308594-1.875-16.507812-5.464844-24h-18.535156zm0 0" fill="#b53630"/><path d="m160.328125 309.65625h32v32h-32zm0 0" fill="#c43a34"/><path d="m160.328125 245.65625h32v32h-32zm0 0" fill="#c43a34"/><path d="m160.328125 341.65625h32v32h-32zm0 0" fill="#b53630"/><path d="m160.328125 277.65625h32v32h-32zm0 0" fill="#b53630"/><path d="m96.328125 309.65625h32v32h-32zm0 0" fill="#c43a34"/><path d="m96.328125 341.65625h32v32h-32zm0 0" fill="#b53630"/><path d="m96.328125 277.65625h32v32h-32zm0 0" fill="#b53630"/><path d="m96.328125 277.65625h32v-32c-11.449219-.007812-22.621094 3.511719-32 10.078125zm0 0" fill="#c43a34"/><path d="m320.328125 309.65625h32v32h-32zm0 0" fill="#dd4a43"/><path d="m72.328125 341.65625h24v32h-24zm0 0" fill="#d13e37"/><path d="m176.328125 245.65625 48 80 48-80zm0 0" fill="#4398d1"/><path d="m392.328125 405.65625h-72v-32h72zm0 0" fill="#dd4a43"/><path d="m320.328125 477.65625v-72h56v72" fill="#feb784"/><path d="m128.328125 245.65625h32v80h-32zm0 0" fill="#7a3e1a"/><path d="m288.328125 245.65625h32v80h-32zm0 0" fill="#7a3e1a"/><path d="m128.328125 325.65625v152h192v-152zm0 0" fill="#995023"/><path d="m128.328125 453.65625v24h192v-141.304688c-51.457031 74.960938-136.113281 105.234376-192 117.304688zm0 0" fill="#8f4b21"/><path d="m152.328125 349.65625h16v16h-16zm0 0" fill="#7a3e1a"/><path d="m280.328125 349.65625h16v16h-16zm0 0" fill="#7a3e1a"/><path d="m272.328125 477.65625h-96l-16-16v-72h128v72zm0 0" fill="#7a3e1a"/><path d="m224.328125 157.65625c26.511719 0 48 21.488281 48 48v32c0 26.507812-21.488281 48-48 48-26.507813 0-48-21.492188-48-48v-32c0-26.511719 21.492187-48 48-48zm0 0" fill="#dbdbd9"/><path d="m224.328125 157.65625c26.511719 0 48 21.488281 48 48v32c0 26.507812-21.488281 48-48 48-26.507813 0-48-21.492188-48-48v-32c0-26.511719 21.492187-48 48-48zm0 0" fill="#e3e3e1"/><path d="m304.328125 173.65625h-8v-48h8c13.253906 0 24 10.746094 24 24s-10.746094 24-24 24zm0 0" fill="#feb784"/><path d="m144.328125 125.65625h8v48h-8c-13.253906 0-24-10.746094-24-24s10.746094-24 24-24zm0 0" fill="#feb784"/><path d="m40.328125 173.65625h32v192h-32zm0 0" fill="#995023"/><path d="m40.328125 445.65625h32v32h-32zm0 0" fill="#995023"/><path d="m114.671875 0c-11.785156 11.71875-18.390625 27.667969-18.34375 44.289062v65.367188c-.042969 10.132812-6.445313 19.148438-16 22.527344v-87.894532c-.035156-12.375 4.882813-24.25 13.65625-32.976562l-11.3125-11.3125c-11.785156 11.71875-18.390625 27.667969-18.34375 44.289062v89.367188h-16v-89.367188c-.035156-12.375 4.882813-24.25 13.65625-32.976562l-11.3125-11.3125c-11.785156 11.71875-18.390625 27.667969-18.34375 44.289062v87.894532c-9.554687-3.378906-15.957031-12.394532-16-22.527344v-65.367188c-.035156-12.375 4.882813-24.25 13.65625-32.976562l-11.3125-11.3125c-11.785156 11.71875-18.390625 27.667969-18.34375 44.289062v65.367188c.027344 22.082031 17.917969 39.972656 40 40v24h32v-24c22.082031-.027344 39.972656-17.917969 40-40v-65.367188c-.035156-12.375 4.882813-24.25 13.65625-32.976562zm0 0" fill="#dbdbd9"/><path d="m24.328125 365.65625h48c8.835937 0 16 7.164062 16 16v48c0 8.835938-7.164063 16-16 16h-48zm0 0" fill="#fec9a3"/><path d="m224.328125 205.65625c-8.347656-.351562-16.1875-4.109375-21.6875-10.398438l11.375-11.203124c2.269531 3.492187 6.148437 5.601562 10.3125 5.601562s8.042969-2.109375 10.3125-5.601562l11.375 11.203124c-5.5 6.289063-13.339844 10.046876-21.6875 10.398438zm0 0" fill="#995023"/><path d="m320.328125 405.65625h56v16h-56zm0 0" fill="#f4a876"/><path d="m179.28125 254.089844c8.023438 21.804687 30.511719 34.734375 53.394531 30.695312 22.882813-4.042968 39.585938-23.894531 39.652344-47.128906v-32c-.007813-6.988281-1.546875-13.890625-4.511719-20.214844-19.488281 44.214844-51.488281 60.214844-88.535156 68.648438zm0 0" fill="#dbdbd9"/></svg>