<svg id="Capa_1" enable-background="new 0 0 501.53 501.53" height="17px" viewBox="0 0 501.53 501.53" width="17px" fill="#fff" xmlns="http://www.w3.org/2000/svg"><g><g><path d="m493.354 345.029c-4.051-4.99-10.341-7.612-16.741-6.986-51.311 5.467-71.604 33.38-81.819 59.142-4.488-11.861-11.633-24.272-22.959-34.762 17.838-14.25 31.015-31.25 40.739-48.595 18.934-33.386 25.273-71.013 26.735-88.664 1.288-11.249-8.766-21.643-20.04-20.918-55.768 2.481-99.431 20.854-129.776 54.607-13.971 15.54-23.677 32.71-30.41 49.427l-.004-57.956c10.402-9.916 54.577-55.632 57.675-119.53 2.119-43.692-15.527-85.927-52.446-125.533-6.403-7.183-18.642-6.866-24.743.565-13.58 14.499-40.484 56.273-46.53 92.623-4.947 24.93-3.876 49.573 3.184 73.246 8.103 27.17 24.213 53.252 47.859 77.584l.004 59.002c-6.733-16.717-16.439-33.887-30.41-49.427-30.345-33.753-74.008-52.126-129.776-54.607-11.279-.735-21.326 9.676-20.04 20.919 1.035 12.377 4.73 35.984 13.047 58.61 9.596 26.468 25.897 55.549 53.569 77.975-11.754 10.625-19.11 23.312-23.694 35.426-.442-1.167-.901-2.338-1.396-3.513-9.585-22.792-31.317-50.941-80.42-55.619-12.072-1.472-22.997 10.035-20.865 22.039 3.921 25.847 21.027 84.883 95.219 88.583v45.364c0 4.142 3.358 7.5 7.5 7.5s7.5-3.358 7.5-7.5v-45.386c49.301-2.473 73.335-29.399 85.021-54.34 13.531 3.06 28.39 4.955 44.743 5.39v86.837h-19.181c-4.142 0-7.5 3.358-7.5 7.5s3.358 7.5 7.5 7.5h51.735c4.142 0 7.5-3.358 7.5-7.5s-3.358-7.5-7.5-7.5h-17.554v-86.837c27.136-.721 50.19-5.433 69.798-12.903l45.966 45.47c-17.25-2.924-31.54-9.875-42.635-20.776-2.956-2.903-7.704-2.86-10.606.094-2.903 2.955-2.861 7.704.094 10.606 16.516 16.225 38.554 25.093 65.561 26.457v45.389c0 4.142 3.358 7.5 7.5 7.5s7.5-3.358 7.5-7.5v-45.364c74.192-3.7 91.299-62.736 95.219-88.583.826-5.441-.675-10.849-4.123-15.056zm-20.474 8.557-69.237 68.49c1.089-6.704 3.006-14.582 6.377-22.599 11.027-26.22 32.166-41.635 62.86-45.891zm-117.034 2.087c-8.763 6.133-18.231 11.369-28.42 15.537-16.973 6.995-35.971 11.301-56.94 12.884l67.123-67.224h55.622c-10.17 15.408-22.862 28.597-37.385 38.803zm-35.127-105.041c24.377-18.048 55.468-28.447 92.814-31.028l-92.814 92.954zm81.358 51.238h-49.49l71.038-71.145c-2.207 17.874-7.742 44.751-21.548 71.145zm-101.34-33.088c1.616-1.794 3.28-3.537 4.982-5.235v64.033l-46.089 46.158c1.834-24.746 9.664-70.05 41.107-104.956zm-41.659-40.414v-48.711l40.194-29.78c-7.129 35.287-27.107 63.262-40.194 78.491zm42.719-99.03-42.719 31.651v-139.119c29.938 34.403 44.301 70.519 42.719 107.468zm-57.719-105.209v90.451l-31.917-30.246c8.297-26.093 22.113-47.326 31.917-60.205zm-36.33 77.239c.031-.154.066-.305.097-.459l36.233 34.336v91.755c-32.939-38.913-45.168-81.096-36.33-125.632zm-5.32 167.415c31.445 34.908 39.273 80.214 41.107 104.956l-81.497-81.62v-54.026c15.542 7.847 29.035 18.083 40.39 30.69zm-112.796-49.179c21.175 1.463 40.338 5.441 57.406 11.903v45.589zm-10.092 11.122 42.003 42.066h-32.661c-5.253-16.015-7.953-30.82-9.342-42.066zm32.286 88.945c-7.219-10.402-12.886-21.238-17.349-31.879h42.043l96.158 96.303c-48.063-3.087-93.497-23.947-120.852-64.424zm31.093 51.164c4.866 3.197 10.037 6.192 15.515 8.96l-42.673 42.217c2.501-15.181 9.252-36.336 27.158-51.177zm-51.56 28.178c3.476 8.133 5.442 16.191 6.553 23.042l-69.216-68.469c30.507 4.23 51.579 19.489 62.663 45.427zm-70.757-32.334 66.292 65.576c-44.569-7.56-60.598-40.558-66.292-65.576zm106.105 65.605 46.437-45.94c3.692 1.437 7.505 2.776 11.448 4.007-11.748 23.423-31.147 37.468-57.885 41.933zm232.639-60.873c17.392 14.807 24.002 35.619 26.47 50.603l-42.137-41.683c5.538-2.747 10.749-5.736 15.667-8.92zm55.337 60.843 66.291-65.576c-5.693 25.018-21.725 58.015-66.291 65.576z"/><path d="m53.948 109.013 23.038 5.974c3.902 1.046 8.117-1.336 9.142-5.377 1.04-4.009-1.368-8.103-5.377-9.142l-23.038-5.974c-4.008-1.041-8.102 1.367-9.142 5.377-1.04 4.009 1.368 8.102 5.377 9.142z"/><path d="m79.207 52.454 19.417 13.762c3.342 2.378 8.046 1.62 10.456-1.782 2.395-3.379 1.597-8.061-1.782-10.456l-19.417-13.762c-3.379-2.395-8.061-1.598-10.456 1.782s-1.598 8.061 1.782 10.456z"/><path d="m134.938 32.332c1.633 3.847 6.134 5.558 9.848 3.939 3.807-1.632 5.571-6.041 3.939-9.848l-9.376-21.875c-1.632-3.808-6.041-5.568-9.848-3.939-3.807 1.632-5.571 6.041-3.939 9.848z"/><path d="m415.448 109.609c1.025 4.042 5.24 6.423 9.142 5.377l23.038-5.974c4.01-1.04 6.417-5.133 5.377-9.142-1.04-4.01-5.135-6.417-9.142-5.377l-23.038 5.974c-4.009 1.039-6.417 5.132-5.377 9.142z"/><path d="m398.622 67.598c1.5 0 3.014-.448 4.331-1.381l19.417-13.762c3.379-2.396 4.177-7.077 1.782-10.456-2.396-3.38-7.077-4.177-10.456-1.782l-19.417 13.762c-3.379 2.396-4.177 7.077-1.782 10.456 1.462 2.062 3.775 3.163 6.125 3.163z"/><path d="m356.791 36.271c3.714 1.619 8.215-.093 9.848-3.939l9.376-21.875c1.632-3.807-.132-8.216-3.939-9.848-3.807-1.631-8.217.132-9.848 3.939l-9.376 21.875c-1.632 3.807.132 8.216 3.939 9.848z"/></g></g></svg>