<svg id="Layer_1_copy" height="65px" viewBox="0 0 64 64" width="65px" xmlns="http://www.w3.org/2000/svg" data-name="Layer 1 copy"><path d="m32 16-13 10h26z" fill="#addfed"/><path d="m2 26h60v30h-60z" fill="#addfed"/><path d="m41 1h8v6h-8z" fill="#e93527"/><path d="m30.7 17h-14.7v9h3z" fill="#2b99b2"/><path d="m48 26v-9h-14.7l11.7 9z" fill="#2b99b2"/><path d="m41 18a1 1 0 0 1 -1-1v-10a1 1 0 0 1 2 0v10a1 1 0 0 1 -1 1z" fill="#2b99b2"/><path d="m45 27h-26a1 1 0 0 1 -.609-1.792l13-10a1 1 0 0 1 1.219 0l13 10a1 1 0 0 1 -.61 1.792zm-23.06-2h20.12l-10.06-7.738z" fill="#84d7f4"/><path d="m48 57a1 1 0 0 1 -1-1v-30a1 1 0 0 1 2 0v30a1 1 0 0 1 -1 1z" fill="#2d99b2"/><path d="m16 57a1 1 0 0 1 -1-1v-30a1 1 0 0 1 2 0v30a1 1 0 0 1 -1 1z" fill="#2d99b2"/><path d="m27 57a1 1 0 0 1 -1-1v-30a1 1 0 0 1 2 0v30a1 1 0 0 1 -1 1z" fill="#2d99b2"/><path d="m37 57a1 1 0 0 1 -1-1v-30a1 1 0 0 1 2 0v30a1 1 0 0 1 -1 1z" fill="#2d99b2"/><path d="m62 57a1 1 0 0 1 -1-1v-29h-58v29a1 1 0 0 1 -2 0v-30a1 1 0 0 1 1-1h60a1 1 0 0 1 1 1v30a1 1 0 0 1 -1 1z" fill="#2d99b2"/><path d="m10 34h-2a1 1 0 0 1 0-2h2a1 1 0 0 1 0 2z" fill="#285680"/><path d="m10 42h-2a1 1 0 0 1 0-2h2a1 1 0 0 1 0 2z" fill="#285680"/><path d="m10 50h-2a1 1 0 0 1 0-2h2a1 1 0 0 1 0 2z" fill="#285680"/><path d="m56 34h-2a1 1 0 0 1 0-2h2a1 1 0 0 1 0 2z" fill="#285680"/><path d="m55 27a1 1 0 0 1 -1-1v-4a1 1 0 0 1 2 0v4a1 1 0 0 1 -1 1z" fill="#2d99b2"/><path d="m9 27a1 1 0 0 1 -1-1v-4a1 1 0 0 1 2 0v4a1 1 0 0 1 -1 1z" fill="#2d99b2"/><g fill="#285680"><path d="m56 42h-2a1 1 0 0 1 0-2h2a1 1 0 0 1 0 2z"/><path d="m44 42h-2a1 1 0 0 1 0-2h2a1 1 0 0 1 0 2z"/><path d="m23 42h-2a1 1 0 0 1 0-2h2a1 1 0 0 1 0 2z"/><path d="m44 34h-2a1 1 0 0 1 0-2h2a1 1 0 0 1 0 2z"/><path d="m23 34h-2a1 1 0 0 1 0-2h2a1 1 0 0 1 0 2z"/><path d="m56 50h-2a1 1 0 0 1 0-2h2a1 1 0 0 1 0 2z"/></g><path d="m49 8h-8a1 1 0 0 1 -1-1v-6a1 1 0 0 1 1-1h8a1 1 0 0 1 1 1v6a1 1 0 0 1 -1 1zm-7-2h6v-4h-6z" fill="#e93527"/><path d="m63 63h-62a1 1 0 0 1 0-2h62a1 1 0 0 1 0 2z" fill="#aeae27"/><path d="m63 57h-6a1 1 0 0 1 0-2h6a1 1 0 0 1 0 2z" fill="#aeae27"/><path d="m53 57h-52a1 1 0 0 1 0-2h52a1 1 0 0 1 0 2z" fill="#aeae27"/></svg>