<svg id="Capa_1" enable-background="new 0 0 512 512" height="512" viewBox="0 0 512 512" width="512" xmlns="http://www.w3.org/2000/svg"><g><path d="m512 346-31 30.899 31 29.101v91c0 8.399-6.599 15-15 15h-61l-28.5-30-31.5 30h-361c-8.401 0-15-6.601-15-15v-91l30-27.601-30-32.399v-150c0-8.401 6.599-15 15-15h61l31.8 30 28.2-30h361c8.401 0 15 6.599 15 15z" fill="#a0e65c"/><path d="m512 346-31 30.899 31 29.101v91c0 8.399-6.599 15-15 15h-61l-28.5-30-31.5 30h-120v-331h241c8.401 0 15 6.599 15 15z" fill="#79cc52"/><path d="m512 346v60h-76v106h-60v-106h-376v-60h76v-165h60v165z" fill="#edf1f9"/><path d="m512 346v60h-76v106h-60v-106h-120v-60z" fill="#d8e0f0"/><path d="m376 0c-57.891 0-105 48.109-105 106 0 18.442 4.863 36.577 14.033 52.441l77.988 135.059c2.666 4.644 7.617 7.5 12.979 7.5s10.312-2.856 12.979-7.5l77.988-135.059c9.17-15.864 14.033-33.999 14.033-52.441 0-57.891-47.109-106-105-106zm0 151c-24.814 0-45-20.186-45-45s20.186-45 45-45 45 20.186 45 45-20.186 45-45 45z" fill="#ff7f40"/><path d="m388.979 293.5 77.988-135.059c9.17-15.864 14.033-33.999 14.033-52.441 0-57.891-47.109-106-105-106v61c24.814 0 45 20.186 45 45s-20.186 45-45 45v150c5.361 0 10.312-2.856 12.979-7.5z" fill="#f25a3c"/></g></svg>