<svg xmlns="http://www.w3.org/2000/svg" version="1.1" xmlns:xlink="http://www.w3.org/1999/xlink" xmlns:svgjs="http://svgjs.com/svgjs" width="1440" height="560" preserveAspectRatio="none" viewBox="0 0 1440 560">
    <g mask="url(&quot;#SvgjsMask1019&quot;)" fill="none">
        <path d="M1398 554L1397 732" stroke-width="8" stroke="url(#SvgjsLinearGradient1020)" stroke-linecap="round" class="Up"></path>
        <path d="M818 202L817 433" stroke-width="10" stroke="url(#SvgjsLinearGradient1021)" stroke-linecap="round" class="Down"></path>
        <path d="M881 339L880 619" stroke-width="6" stroke="url(#SvgjsLinearGradient1021)" stroke-linecap="round" class="Down"></path>
        <path d="M1209 224L1208 -99" stroke-width="6" stroke="url(#SvgjsLinearGradient1021)" stroke-linecap="round" class="Down"></path>
        <path d="M835 184L834 578" stroke-width="10" stroke="url(#SvgjsLinearGradient1021)" stroke-linecap="round" class="Down"></path>
        <path d="M1228 289L1227 675" stroke-width="8" stroke="url(#SvgjsLinearGradient1021)" stroke-linecap="round" class="Down"></path>
        <path d="M1121 401L1120 40" stroke-width="8" stroke="url(#SvgjsLinearGradient1021)" stroke-linecap="round" class="Down"></path>
        <path d="M1129 226L1128 616" stroke-width="6" stroke="url(#SvgjsLinearGradient1021)" stroke-linecap="round" class="Down"></path>
        <path d="M934 158L933 -132" stroke-width="8" stroke="url(#SvgjsLinearGradient1021)" stroke-linecap="round" class="Down"></path>
        <path d="M156 175L155 -136" stroke-width="6" stroke="url(#SvgjsLinearGradient1021)" stroke-linecap="round" class="Down"></path>
        <path d="M1319 22L1318 -292" stroke-width="8" stroke="url(#SvgjsLinearGradient1020)" stroke-linecap="round" class="Up"></path>
        <path d="M215 431L214 844" stroke-width="8" stroke="url(#SvgjsLinearGradient1020)" stroke-linecap="round" class="Up"></path>
        <path d="M396 439L395 611" stroke-width="10" stroke="url(#SvgjsLinearGradient1020)" stroke-linecap="round" class="Up"></path>
        <path d="M1124 375L1123 542" stroke-width="6" stroke="url(#SvgjsLinearGradient1020)" stroke-linecap="round" class="Up"></path>
        <path d="M116 223L115 414" stroke-width="6" stroke="url(#SvgjsLinearGradient1021)" stroke-linecap="round" class="Down"></path>
        <path d="M360 87L359 287" stroke-width="6" stroke="url(#SvgjsLinearGradient1020)" stroke-linecap="round" class="Up"></path>
        <path d="M255 54L254 343" stroke-width="6" stroke="url(#SvgjsLinearGradient1020)" stroke-linecap="round" class="Up"></path>
        <path d="M14 318L13 484" stroke-width="8" stroke="url(#SvgjsLinearGradient1020)" stroke-linecap="round" class="Up"></path>
        <path d="M1268 330L1267 658" stroke-width="6" stroke="url(#SvgjsLinearGradient1021)" stroke-linecap="round" class="Down"></path>
        <path d="M222 213L221 552" stroke-width="8" stroke="url(#SvgjsLinearGradient1021)" stroke-linecap="round" class="Down"></path>
        <path d="M41 51L40 202" stroke-width="6" stroke="url(#SvgjsLinearGradient1020)" stroke-linecap="round" class="Up"></path>
        <path d="M516 327L515 166" stroke-width="6" stroke="url(#SvgjsLinearGradient1020)" stroke-linecap="round" class="Up"></path>
        <path d="M198 447L197 40" stroke-width="6" stroke="url(#SvgjsLinearGradient1020)" stroke-linecap="round" class="Up"></path>
        <path d="M1091 239L1090 -10" stroke-width="8" stroke="url(#SvgjsLinearGradient1020)" stroke-linecap="round" class="Up"></path>
        <path d="M1197 337L1196 158" stroke-width="10" stroke="url(#SvgjsLinearGradient1021)" stroke-linecap="round" class="Down"></path>
        <path d="M812 333L811 138" stroke-width="10" stroke="url(#SvgjsLinearGradient1021)" stroke-linecap="round" class="Down"></path>
        <path d="M1196 152L1195 309" stroke-width="10" stroke="url(#SvgjsLinearGradient1020)" stroke-linecap="round" class="Up"></path>
        <path d="M330 97L329 275" stroke-width="8" stroke="url(#SvgjsLinearGradient1020)" stroke-linecap="round" class="Up"></path>
        <path d="M304 44L303 -364" stroke-width="8" stroke="url(#SvgjsLinearGradient1020)" stroke-linecap="round" class="Up"></path>
        <path d="M65 159L64 -153" stroke-width="8" stroke="url(#SvgjsLinearGradient1020)" stroke-linecap="round" class="Up"></path>
        <path d="M1378 459L1377 312" stroke-width="8" stroke="url(#SvgjsLinearGradient1021)" stroke-linecap="round" class="Down"></path>
        <path d="M560 424L559 266" stroke-width="6" stroke="url(#SvgjsLinearGradient1020)" stroke-linecap="round" class="Up"></path>
        <path d="M1353 44L1352 262" stroke-width="10" stroke="url(#SvgjsLinearGradient1020)" stroke-linecap="round" class="Up"></path>
        <path d="M597 157L596 -254" stroke-width="10" stroke="url(#SvgjsLinearGradient1021)" stroke-linecap="round" class="Down"></path>
        <path d="M221 546L220 873" stroke-width="8" stroke="url(#SvgjsLinearGradient1021)" stroke-linecap="round" class="Down"></path>
        <path d="M357 262L356 638" stroke-width="10" stroke="url(#SvgjsLinearGradient1021)" stroke-linecap="round" class="Down"></path>
    </g>
    <defs>
        <mask id="SvgjsMask1019">
            <rect width="1440" height="560" fill="#ffffff"></rect>
        </mask>
        <linearGradient x1="0%" y1="100%" x2="0%" y2="0%" id="SvgjsLinearGradient1020">
            <stop stop-color="rgba(0, 112, 186, 0)" offset="0"></stop>
            <stop stop-color="rgba(0, 112, 186, 0.24)" offset="1"></stop>
        </linearGradient>
        <linearGradient x1="0%" y1="0%" x2="0%" y2="100%" id="SvgjsLinearGradient1021">
            <stop stop-color="rgba(0, 112, 186, 0)" offset="0"></stop>
            <stop stop-color="rgba(0, 112, 186, 0.24)" offset="1"></stop>
        </linearGradient>
    </defs>
</svg>