<svg id="Capa_1" enable-background="new 0 0 512 512" height="512" viewBox="0 0 512 512" width="512" xmlns="http://www.w3.org/2000/svg"><g><path d="m512 96.806v278.819c0 5.697-4.615 10.302-10.302 10.302h-377.087c-5.687 0-10.302-4.605-10.302-10.302v-278.819c0-5.697 4.615-10.302 10.302-10.302h217.502v143.257c0 2.328 1.895 4.224 4.224 4.224h99.608c2.328 0 4.224-1.896 4.224-4.224v-143.257h51.53c5.686 0 10.301 4.605 10.301 10.302z" fill="#fddaa9"/><path d="m232.079 385.926h-107.468c-5.687 0-10.302-4.605-10.302-10.302v-75.863h92.036c11.703 0 21.201 9.488 21.201 21.201s-9.498 21.201-21.201 21.201h-67.199z" fill="#fccd8a"/><path d="m512 96.806v278.819c0 5.697-4.615 10.302-10.302 10.302h-19.913c5.687 0 10.302-4.605 10.302-10.302v-278.819c0-5.697-4.615-10.302-10.302-10.302h19.913c5.687 0 10.302 4.605 10.302 10.302z" fill="#fccd8a"/><g><path d="m227.545 302.935c0 11.71-9.493 21.203-21.203 21.203h-67.191l111.426 52.472 65.761-8.224c14.263-1.784 28.1 5.624 34.523 18.483 3.023 6.051-.481 13.328-7.096 14.738l-112.083 23.892-172.555-50.68v-93.087h147.215c11.71 0 21.203 9.493 21.203 21.203z" fill="#ffa792"/><path d="m351.961 391.489c0 4.677-3.214 9.055-8.2 10.116l-112.084 23.89-172.555-50.674v-15.947l167.786 49.273 108.973-23.23c4.079-.865 6.943-4.038 7.726-7.737 2.926 2.72 5.398 5.975 7.253 9.694.751 1.504 1.101 3.07 1.101 4.615z" fill="#f69583"/><g><path d="m48.612 405.052h-38.269c-5.712 0-10.343-4.631-10.343-10.343v-108.815c0-5.712 4.631-10.343 10.343-10.343h48.612c5.712 0 10.343 4.631 10.343 10.343v98.472c0 11.425-9.262 20.686-20.686 20.686z" fill="#70d9e6"/><path d="m69.3 285.896v98.475c0 11.425-9.261 20.686-20.686 20.686h-18.543c11.425 0 20.686-9.261 20.686-20.686v-98.475c0-5.718-4.636-10.343-10.343-10.343h18.543c5.707 0 10.343 4.625 10.343 10.343z" fill="#3ad1e0"/></g><g><path d="m28.616 382.914h-1.039c-4.267 0-7.726-3.459-7.726-7.726s3.459-7.726 7.726-7.726h1.039c4.267 0 7.726 3.459 7.726 7.726s-3.459 7.726-7.726 7.726z" fill="#3ad1e0"/></g><g><path d="m171.958 339.589h-32.811c-4.986 0-9.529 2.946-11.569 7.5-1.277 2.874-4.1 4.574-7.057 4.574-1.051 0-2.122-.216-3.152-.67-3.894-1.741-5.635-6.315-3.894-10.209 4.522-10.116 14.598-16.648 25.672-16.648z" fill="#f69583"/></g></g><path d="m456.885 245.183h-121.485c-2.845 0-5.151-2.306-5.151-5.151v-153.531h131.787v153.532c0 2.844-2.306 5.15-5.151 5.15z" fill="#f8f3f1"/><path d="m462.036 86.504v153.528c0 2.843-2.308 5.151-5.151 5.151h-121.489c-2.843 0-5.151-2.308-5.151-5.151v-153.528z" fill="#f8f3f1"/><path d="m462.036 86.504v153.528c0 2.843-2.308 5.151-5.151 5.151h-18.585c2.843 0 5.151-2.308 5.151-5.151v-153.528z" fill="#efe2dd"/><g><path d="m330.245 177.706h131.791v15.453h-131.791z" fill="#efe2dd"/></g><g><path d="m428.04 161.738h-66.966c-4.268 0-7.726-3.459-7.726-7.726s3.459-7.726 7.726-7.726h66.966c4.268 0 7.726 3.459 7.726 7.726s-3.458 7.726-7.726 7.726z" fill="#efe2dd"/></g><g><path d="m377.561 134.954h-16.487c-4.268 0-7.726-3.459-7.726-7.726s3.459-7.726 7.726-7.726h16.487c4.268 0 7.726 3.459 7.726 7.726.001 4.266-3.458 7.726-7.726 7.726z" fill="#efe2dd"/></g><g><g><path d="m362.109 222.519h-1.034c-4.268 0-7.726-3.459-7.726-7.726s3.459-7.726 7.726-7.726h1.034c4.268 0 7.726 3.459 7.726 7.726s-3.459 7.726-7.726 7.726z" fill="#efe2dd"/></g><g><path d="m386.318 222.519h-1.034c-4.268 0-7.726-3.459-7.726-7.726s3.459-7.726 7.726-7.726h1.034c4.268 0 7.726 3.459 7.726 7.726s-3.458 7.726-7.726 7.726z" fill="#efe2dd"/></g><g><path d="m410.527 222.519h-1.034c-4.268 0-7.726-3.459-7.726-7.726s3.459-7.726 7.726-7.726h1.034c4.268 0 7.726 3.459 7.726 7.726s-3.458 7.726-7.726 7.726z" fill="#efe2dd"/></g><g><g><path d="m434.736 222.519h-1.034c-4.268 0-7.726-3.459-7.726-7.726s3.459-7.726 7.726-7.726h1.034c4.268 0 7.726 3.459 7.726 7.726s-3.458 7.726-7.726 7.726z" fill="#efe2dd"/></g></g></g><g fill="#fccd8a"><path d="m186.538 121.754c-2.975-2.797-7.612-2.797-10.586 0l-17.532 16.484c-3.109 2.923-3.259 7.812-.336 10.922 1.52 1.617 3.573 2.434 5.63 2.434 1.897 0 3.799-.695 5.291-2.098l4.513-4.243v19.912c0 4.267 3.459 7.726 7.726 7.726s7.726-3.459 7.726-7.726v-19.912l4.512 4.243c3.11 2.924 7.999 2.773 10.922-.336s2.773-7.998-.336-10.922z"/><path d="m267.149 138.237-17.532-16.484c-2.975-2.797-7.611-2.797-10.586 0l-17.531 16.484c-3.109 2.923-3.259 7.813-.336 10.922s7.812 3.259 10.922.336l4.512-4.243v19.912c0 4.267 3.459 7.726 7.726 7.726s7.726-3.459 7.726-7.726v-19.912l4.513 4.243c1.492 1.403 3.393 2.098 5.292 2.098 2.056 0 4.11-.817 5.63-2.434 2.923-3.109 2.773-7.999-.336-10.922z"/></g><path d="m176.831 208.284-15.189 25.257c-2.065 3.433.408 7.806 4.414 7.806h30.378c4.006 0 6.479-4.372 4.414-7.806l-15.189-25.257c-2.001-3.328-6.826-3.328-8.828 0z" fill="#fb9927"/><g><path d="m462.036 310.6h-36.405c-4.268 0-7.726-3.459-7.726-7.726s3.459-7.726 7.726-7.726h36.405c4.268 0 7.726 3.459 7.726 7.726.001 4.266-3.458 7.726-7.726 7.726z" fill="#fccd8a"/></g><g><path d="m462.036 337.757h-131.786c-4.268 0-7.726-3.459-7.726-7.726s3.459-7.726 7.726-7.726h131.787c4.268 0 7.726 3.459 7.726 7.726s-3.459 7.726-7.727 7.726z" fill="#fccd8a"/></g></g></svg>