<svg id="Layer_1" enable-background="new 0 0 512 512" height="512" viewBox="0 0 512 512" width="512" xmlns="http://www.w3.org/2000/svg"><g><path id="XMLID_668_" d="m375.967 256 14.719 15.058h61.077l15.059-15.058-15.059-15.059h-61.077z" fill="#29376d"/><path id="XMLID_667_" d="m133.522 256-12.208-15.059h-61.078l-15.059 15.059 15.059 15.058h61.078z" fill="#47568c"/><path id="XMLID_665_" d="m248.458 381.278-7.517 9.408v61.078l7.529 10.039 7.529-10.039 10.039-30.117-10.039-30.117z" fill="#61729b"/><path id="XMLID_663_" d="m271.058 390.686-7.517-9.408-7.541 10.251v60.235l7.529 10.039 7.529-10.039c0-21.38 0-39.699 0-61.078z" fill="#47568c"/><path id="XMLID_659_" d="m240.941 60.236v61.078l7.517 6.686 7.541-7.529c0-7.287 0-52.899 0-60.235l-7.529-10.039z" fill="#61729b"/><path id="XMLID_650_" d="m271.058 121.314c0-21.38 0-39.698 0-61.078l-7.529-10.039-7.529 10.039v60.235l7.541 8.868z" fill="#47568c"/><path id="XMLID_647_" d="m178.116 451.763c-4.361 5.267-8.108 9.792-12.469 15.059 4.36 5.267 8.109 9.793 12.468 15.059h77.885l10.039-15.059-10.039-15.059c-9.469 0-68.392 0-77.884 0z" fill="#27e7f0"/><path id="XMLID_645_" d="m346.352 466.822c-.664-.802.886 1.07-12.469-15.059-9.469 0-68.392 0-77.884 0v30.117h77.884c4.361-5.265 8.109-9.792 12.469-15.058z" fill="#3ac0f1"/><path id="XMLID_113_" d="m376.469 421.646c-39.902 0-60.386 48.649-31.93 77.106 17.659 17.659 46.189 17.67 63.859 0 28.525-28.524 7.91-77.106-31.929-77.106z" fill="#fdbf00"/><path id="XMLID_122_" d="m180.706 466.822c0 12.455-5.067 23.749-13.247 31.93-17.659 17.66-46.189 17.67-63.859 0-17.659-17.659-17.67-46.189 0-63.858 28.523-28.524 77.106-7.91 77.106 31.928z" fill="#fbe000"/><path id="XMLID_632_" d="m256 180.706 10.039-29.365-10.039-30.87c-133.283 0-186.394 173.845-75.294 248.148z" fill="#f3f5f9"/><path id="XMLID_571_" d="m331.293 368.619c110.756-74.072 58.385-248.148-75.293-248.148v60.235z" fill="#f3f5f9"/><path id="XMLID_569_" d="m256 301.176 10.039 45.176-10.039 45.176c-26.834 0-52.977-7.921-75.294-22.909 0-20.577-4.601-59.074 33.19-84.658l19.36 2.713z" fill="#f77231"/><path id="XMLID_557_" d="m256 301.176v90.352c26.424 0 52.642-7.697 75.294-22.909-.898-13.245 7.781-56.926-33.188-84.66l-19.517 2.66z" fill="#df4a2c"/><path id="XMLID_555_" d="m213.427 283.514c10.908 10.908 25.966 17.663 42.573 17.663l10.039-60.235-10.039-60.235c-53.709-.001-80.264 65.116-42.573 102.807z" fill="#fdc"/><path id="XMLID_552_" d="m256 180.706v120.47c53.708 0 80.263-65.116 42.572-102.807-10.907-10.907-25.966-17.663-42.572-17.663z" fill="#ffccb3"/><path id="XMLID_545_" d="m481.882 178.116-15.06-12.469-15.058 12.469v155.768l15.059 12.468 15.059-12.468z" fill="#3ac0f1"/><path id="XMLID_541_" d="m421.646 135.53c0-24.911 20.266-45.176 45.176-45.176s45.176 20.266 45.176 45.176-20.266 45.176-45.176 45.176-45.176-20.265-45.176-45.176z" fill="#fdbf00"/><path id="XMLID_538_" d="m421.646 376.469c0-24.91 20.266-45.176 45.176-45.176s45.176 20.266 45.176 45.176c0 24.911-20.266 45.176-45.176 45.176-24.91.001-45.176-20.264-45.176-45.176z" fill="#fdbf00"/><path id="XMLID_513_" d="m30.118 333.884 15.059 12.468 15.059-12.468v-155.768l-15.059-12.469-15.059 12.469z" fill="#27e7f0"/><path id="XMLID_499_" d="m90.353 376.469c0 24.911-20.266 45.176-45.176 45.176s-45.176-20.264-45.176-45.176c0-24.91 20.266-45.176 45.176-45.176s45.176 20.266 45.176 45.176z" fill="#fbe000"/><path id="XMLID_487_" d="m90.353 135.53c0 24.91-20.266 45.176-45.176 45.176s-45.176-20.266-45.176-45.176 20.266-45.176 45.176-45.176 45.176 20.265 45.176 45.176z" fill="#fbe000"/><path id="XMLID_483_" d="m178.116 30.117c-.664.802.886-1.069-12.468 15.06 4.36 5.266 8.109 9.792 12.469 15.058h77.884l11.043-15.059-11.043-15.059c-9.47 0-68.393 0-77.885 0z" fill="#27e7f0"/><path id="XMLID_479_" d="m346.352 45.176c-4.361-5.267-8.108-9.791-12.469-15.059-9.469 0-68.392 0-77.884 0v30.117h77.884c4.361-5.265 8.109-9.79 12.469-15.058z" fill="#3ac0f1"/><path d="m181.719 45.335c0 24.91-20.266 45.176-45.176 45.176s-45.176-20.266-45.176-45.176 20.266-45.176 45.176-45.176 45.176 20.265 45.176 45.176z" fill="#fbe000"/><path d="m421.427 45.335c0 24.91-20.266 45.176-45.176 45.176s-45.176-20.266-45.176-45.176 20.265-45.177 45.175-45.177 45.177 20.266 45.177 45.177z" fill="#fdbf00"/></g></svg>