<svg height="512" style="enable-background:new 0 0 512 512" viewBox="0 0 512 512" width="512" xmlns="http://www.w3.org/2000/svg" xmlns:xlink="http://www.w3.org/1999/xlink"><g id="_x31_6-amex_x2C__Credit_card"><g><g><path d="M432.121 329.196v-3.595c-8.621 4.47-3.114 3.595-125.077 3.595.0-20.117.081-19.078.0-20.117C305.688 309 304.49 309 299.54 309c0 14.287-.078 5.428-.078 20.196h-31.608c0-9.66.08-12.213.08-23.31-7.982 4.79-18.199 5.109-27.379 4.949.0 11.732-.08 6.626-.08 18.36h-39.03c-4.071-4.553-2.156-2.478-12.292-13.891-2.556 2.794-10.218 11.097-12.852 13.891H110.85v-73.675h66.329c3.991 4.471 2.235 2.475 12.371 13.728 2.555-2.792 9.738-10.696 12.533-13.728h46.295c7.821.0 14.368 1.518 19.396 4.471v-4.471c43.342.0 51.324-1.118 60.424 4.07v-4.07h62.419v4.15c9.099-5.508 15.644-4.15 51.802-4.15v3.991c8.222-4.71 13.249-4.15 43.343-3.991V115.519c0-21.152-17.161-38.314-38.315-38.314H64.314c-21.152.0-38.313 17.162-38.313 38.314v87.641c7.504-17.48 15.725-36.716 18.438-43.021h31.689c3.433 8.061 1.276 2.952 7.184 16.841v-16.841h36.717c2.314 4.947 8.86 19.155 11.095 23.945 4.629-10.856 8.063-19.078 10.058-23.945h82.213c0-.081 9.18.0 9.26.0 34.88.158 42.782-.64 51.402 4.229v-4.229h31.85v7.422c6.065-4.869 14.288-7.422 24.503-7.422h22.03c0 .399 1.519.239 1.837.239h25.86c3.354 7.821 2.076 4.788 7.023 16.442v-16.442h34.563c3.911 6.385-.798-1.437 8.938 14.686v-14.686h31.849v73.434h-33.204c-4.312-7.185-1.118-1.757-10.536-17.48v17.48h-42.146c-5.107-11.814-.081-.24-5.268-12.213h-15.167c-3.351 7.981-1.755 4.151-5.107 12.213h-21.393c-9.815.0-17.799-2.395-23.705-7.104v7.104h-53.079c-.24-11.095-.081-19.796-.081-19.796-1.437-.239-2.715-.159-7.822-.159v20.034H146.848v-9.1c-1.996 4.47-2.155 4.71-4.071 9.1H119.23c-3.193-7.104-2.314-5.108-4.07-9.1v9.1H72.935c-3.353-8.062-1.756-4.23-5.108-12.212H52.501c-3.352 7.981-1.755 4.15-5.108 12.212H26.16V396.48c0 21.155 17.162 38.315 38.314 38.315h383.212c21.15.0 38.313-17.16 38.313-38.315v-72.154C475.862 330.95 459.897 329.196 432.121 329.196z" style="fill:#016fd0"/><path style="fill:#016fd0" d="M293.235 170.754h13.489v55.313H293.235z"/><path d="M285.652 185.599c0-13.09-11.254-14.685-21.87-14.685l-31.209-.241v55.314h13.09v-20.034h14.368c14.687.0 11.573 8.222 11.813 20.034h13.251v-10.776c0-7.342-1.198-12.052-8.781-14.685C282.222 198.131 285.732 191.985 285.652 185.599zM262.187 194.619h-16.523v-12.213h16.763c4.071.0 8.539.799 8.539 5.906C270.965 193.581 266.734 194.619 262.187 194.619z" style="fill:#016fd0"/><path d="M223.474 182.406V170.754H179.175V226.067H223.474V214.653H192.424V203.639H222.596V192.384H192.424V182.406z" style="fill:#016fd0"/><path d="M169.357 226.067v-55.313h-22.031l-15.724 37.514-17.322-37.514H92.65v52.439l-22.429-52.439H50.665l-23.707 55.313h14.289l5.107-12.212h27.538L79 226.067h26.979v-43.262l19.156 43.262h11.654l19.156-43.262v43.262H169.357zM51.063 202.361l8.94-22.03 9.18 22.03H51.063z" style="fill:#016fd0"/><path d="M248.856 266.058h-42.064l-16.763 18.197-16.363-18.197h-53.078l-.081 55.313h52.203l17-18.357 16.283 18.357h25.702l.079-18.596c15.086.0 39.352 3.67 39.352-18.598C271.126 270.367 261.308 266.058 248.856 266.058zM166.004 309.718h-32.407v-11.015h28.975V287.45h-28.975v-9.979h33.285l14.288 16.125L166.004 309.718zM218.524 316.264l-20.193-22.429 20.193-21.871V316.264zM248.697 291.521h-16.923v-14.05h17.161c4.471.0 8.143 1.836 8.143 6.707C257.078 289.284 253.406 291.521 248.697 291.521z" style="fill:#016fd0"/><path d="M313.191 198.85c0 17.719 8.141 27.138 26.339 27.138h15.328l5.105-12.212h27.379l5.267 12.212h26.901v-41.426l24.902 41.426h18.839v-55.073H449.76v38.393l-23.228-38.393h-20.194v52.2l-22.268-52.2h-19.796l-18.758 43.5h-5.906c-10.617.0-12.851-6.466-12.851-15.884.0-18.997 12.531-15.964 26.419-15.725v-12.133h-12.852C321.572 170.673 313.191 180.251 313.191 198.85zM373.934 180.331l8.938 22.03h-18.198L373.934 180.331z" style="fill:#016fd0"/><path d="M415.597 309.479h-25.699l-.081 11.813h25.703c11.813.0 20.912-4.47 20.912-17.559.0-26.501-34.241-8.94-34.241-20.995.0-4.468 3.91-5.106 7.342-5.106h24.266v-11.655h-26.5c-10.217.0-18.758 5.27-18.758 16.522.0 26.341 34.081 9.979 34.081 21.872C422.544 308.682 418.87 309.479 415.597 309.479z" style="fill:#016fd0"/><path d="M330.591 280.984c0-13.091-11.254-14.927-21.63-14.927h-31.45l-.078 55.313h13.25l.077-20.192h14.05c8.78.0 11.813 1.597 11.813 11.015l-.08 9.178h13.25l.081-11.014c0-7.104-1.438-12.053-8.782-14.687C327.239 293.195 330.513 287.05 330.591 280.984zM307.284 289.923H290.76v-12.452h16.764c4.071.0 8.541.8 8.541 5.907C316.064 288.886 311.755 289.923 307.284 289.923z" style="fill:#016fd0"/><path d="M381.915 277.471V266.058H337.854L337.775 321.371H381.836L381.915 309.957 351.104 309.718V298.703H381.356V287.45H351.185V277.471z" style="fill:#016fd0"/><path d="M461.097 277.711h24.025v-11.653H458.86c-10.217.0-18.996 5.268-18.996 16.523.0 26.34 34.082 10.218 34.082 21.87.0 4.07-3.432 5.108-6.704 5.108H441.7l-.08 11.812h25.542c6.705.0 14.049-1.438 17.96-7.103v-20.595c-8.383-11.014-31.369-1.037-31.369-10.774C453.753 278.271 457.423 277.711 461.097 277.711z" style="fill:#016fd0"/></g></g></g><g id="Layer_1"/></svg>